<?xml version="1.0" standalone="no"?>
<!DOCTYPE svg PUBLIC "-//W3C//DTD SVG 20010904//EN"
 "http://www.w3.org/TR/2001/REC-SVG-20010904/DTD/svg10.dtd">
<svg version="1.0" xmlns="http://www.w3.org/2000/svg"
 width="512.000000pt" height="512.000000pt" viewBox="0 0 512.000000 512.000000"
 preserveAspectRatio="xMidYMid meet">

<g transform="translate(0.000000,512.000000) scale(0.100000,-0.100000)"
fill="#000000" stroke="none">
<path d="M1785 4551 c-668 -223 -744 -251 -777 -282 -64 -61 -64 -158 1 -219
34 -32 102 -56 782 -282 409 -137 755 -248 769 -248 14 0 307 94 652 209 l627
209 3 -478 c3 -465 4 -479 24 -506 39 -53 71 -69 134 -69 63 0 95 16 134 69
21 27 21 39 24 619 2 326 0 607 -3 625 -3 18 -19 48 -36 67 -28 32 -74 48
-782 284 -414 138 -766 251 -782 250 -17 0 -363 -112 -770 -248z"/>
<path d="M1494 3438 c-66 -267 -66 -286 -6 -346 35 -34 72 -48 542 -204 278
-93 516 -168 530 -168 14 0 252 75 530 168 470 156 507 170 542 204 60 60 60
79 -6 346 -32 128 -63 232 -69 232 -6 0 -221 -70 -477 -155 -370 -123 -477
-155 -520 -155 -43 0 -150 32 -520 155 -256 85 -471 155 -477 155 -6 0 -37
-104 -69 -232z"/>
<path d="M1000 2705 c-243 -66 -467 -330 -585 -690 -144 -439 -121 -897 63
-1248 170 -325 477 -499 761 -432 116 28 215 88 321 195 119 120 179 218 235
384 63 187 122 274 227 332 l53 29 485 0 485 0 43 -23 c109 -58 166 -139 233
-330 64 -180 121 -273 239 -392 183 -183 372 -244 584 -190 150 38 282 126
389 260 276 346 343 901 171 1418 -126 376 -362 645 -609 692 -40 8 -172 10
-395 8 l-335 -3 -69 -33 c-55 -26 -94 -57 -196 -157 l-127 -125 -413 0 -413 0
-127 125 c-102 100 -141 131 -196 157 l-69 33 -350 2 c-282 2 -361 -1 -405
-12z m2903 -319 c103 -43 128 -177 48 -257 -65 -65 -157 -65 -222 0 -124 123
13 325 174 257z m-2648 -171 c24 -23 25 -29 25 -160 l0 -135 135 0 c131 0 137
-1 160 -25 33 -32 33 -78 0 -110 -23 -24 -29 -25 -160 -25 l-135 0 0 -135 c0
-131 -1 -137 -25 -160 -15 -16 -36 -25 -55 -25 -19 0 -40 9 -55 25 -24 23 -25
29 -25 160 l0 135 -135 0 c-131 0 -137 1 -160 25 -16 15 -25 36 -25 55 0 19 9
40 25 55 23 24 29 25 160 25 l135 0 0 135 c0 131 1 137 25 160 15 16 36 25 55
25 19 0 40 -9 55 -25z m2328 -149 c103 -43 128 -177 48 -257 -65 -65 -157 -65
-222 0 -124 123 13 325 174 257z m640 0 c103 -43 128 -177 48 -257 -65 -65
-157 -65 -222 0 -124 123 13 325 174 257z m-320 -320 c103 -43 128 -177 48
-257 -65 -65 -157 -65 -222 0 -124 123 13 325 174 257z"/>
</g>
</svg>
