<?xml version="1.0" encoding="UTF-8"?>
<svg xmlns="http://www.w3.org/2000/svg" viewBox="0 0 512 512" width="512" height="512">
  <path d="M406.1,160c-8.3-12.3-20.3-22.7-34.4-29.8c-14.1-7.1-30.5-11.2-49.3-11.2H189.6c-18.8,0-35.2,4.1-49.3,11.2
    c-14.1,7.1-26.1,17.5-34.4,29.8c-16.1,23.7-20.4,55.2-13.4,82.1c7,26.9,25.3,49.3,50.6,62.2c6.2,3.2,12.8,5.8,19.7,7.8
    c6.9,2,14.1,3.3,21.5,3.9c7.4,0.6,15,0.5,22.6-0.2c7.6-0.7,15.2-2,22.7-3.9c7.5-1.9,14.9-4.4,22.1-7.5c7.2-3.1,14.2-6.8,20.9-11.1
    c6.7-4.3,13.1-9.2,19.1-14.7c6-5.5,11.6-11.6,16.7-18.2c5.1,6.6,10.7,12.7,16.7,18.2c6,5.5,12.4,10.4,19.1,14.7
    c6.7,4.3,13.7,8,20.9,11.1c7.2,3.1,14.6,5.6,22.1,7.5c7.5,1.9,15.1,3.2,22.7,3.9c7.6,0.7,15.2,0.8,22.6,0.2c7.4-0.6,14.6-1.9,21.5-3.9
    c6.9-2,13.5-4.6,19.7-7.8c25.3-12.9,43.6-35.3,50.6-62.2C426.5,215.2,422.2,183.7,406.1,160z M176,240c0,8.8-7.2,16-16,16h-16v16
    c0,8.8-7.2,16-16,16s-16-7.2-16-16v-16h-16c-8.8,0-16-7.2-16-16s7.2-16,16-16h16v-16c0-8.8,7.2-16,16-16s16,7.2,16,16v16h16
    C168.8,224,176,231.2,176,240z M352,272c-13.3,0-24-10.7-24-24s10.7-24,24-24s24,10.7,24,24S365.3,272,352,272z M352,208
    c-13.3,0-24-10.7-24-24s10.7-24,24-24s24,10.7,24,24S365.3,208,352,208z" fill="black"/>
</svg>
