<?xml version="1.0" encoding="UTF-8"?>
<svg xmlns="http://www.w3.org/2000/svg" viewBox="0 0 640 512" width="50" height="40">
  <path d="M192 64C86 64 0 150 0 256S86 448 192 448H448c106 0 192-86 192-192S554 64 448 64H192zM496 248c-22.1 0-40-17.9-40-40s17.9-40 40-40s40 17.9 40 40s-17.9 40-40 40zm-24 56c0 22.1-17.9 40-40 40s-40-17.9-40-40s17.9-40 40-40s40 17.9 40 40zM168 200c0-13.3 10.7-24 24-24h16v-16c0-13.3 10.7-24 24-24s24 10.7 24 24v16h16c13.3 0 24 10.7 24 24s-10.7 24-24 24H256v16c0 13.3-10.7 24-24 24s-24-10.7-24-24V224H192c-13.3 0-24-10.7-24-24zm8 56c0 22.1-17.9 40-40 40s-40-17.9-40-40s17.9-40 40-40s40 17.9 40 40zm256 0c0 22.1-17.9 40-40 40s-40-17.9-40-40s17.9-40 40-40s40 17.9 40 40zM384 112c0-8.8 7.2-16 16-16h32c8.8 0 16 7.2 16 16s-7.2 16-16 16H400c-8.8 0-16-7.2-16-16zm-64 0c0 8.8-7.2 16-16 16H272c-8.8 0-16-7.2-16-16s7.2-16 16-16h32c8.8 0 16 7.2 16 16z" fill="black"/>
</svg>
