<?xml version="1.0" encoding="UTF-8"?>
<svg xmlns="http://www.w3.org/2000/svg" viewBox="0 0 640 512" width="512" height="512">
  <path d="M448 64H192C86 64 0 150 0 256s86 192 192 192h256c106 0 192-86 192-192S554 64 448 64zM247.1 280h-32v32c0 13.3-10.7 24-24 24s-24-10.7-24-24v-32h-32c-13.3 0-24-10.7-24-24s10.7-24 24-24h32v-32c0-13.3 10.7-24 24-24s24 10.7 24 24v32h32c13.3 0 24 10.7 24 24s-10.7 24-24 24zm184.8-8c-13.3 0-24-10.7-24-24s10.7-24 24-24s24 10.7 24 24s-10.7 24-24 24zm48-48c-13.3 0-24-10.7-24-24s10.7-24 24-24s24 10.7 24 24s-10.7 24-24 24z" fill="black"/>
</svg>
