<?xml version="1.0" encoding="UTF-8"?>
<svg xmlns="http://www.w3.org/2000/svg" viewBox="0 0 512 512" width="512" height="512">
  <path d="M416 192c-12.8 0-25.6 3.2-38.4 6.4-12.8 3.2-22.4 6.4-32 12.8-9.6 6.4-19.2 12.8-25.6 22.4-6.4 9.6-12.8 19.2-16 32-3.2 12.8-6.4 25.6-6.4 38.4s3.2 25.6 6.4 38.4c3.2 12.8 9.6 22.4 16 32 6.4 9.6 16 16 25.6 22.4 9.6 6.4 19.2 9.6 32 12.8 12.8 3.2 25.6 6.4 38.4 6.4s25.6-3.2 38.4-6.4c12.8-3.2 22.4-6.4 32-12.8 9.6-6.4 19.2-12.8 25.6-22.4 6.4-9.6 12.8-19.2 16-32 3.2-12.8 6.4-25.6 6.4-38.4s-3.2-25.6-6.4-38.4c-3.2-12.8-9.6-22.4-16-32-6.4-9.6-16-16-25.6-22.4-9.6-6.4-19.2-9.6-32-12.8-12.8-3.2-25.6-6.4-38.4-6.4z" fill="black"/>
  <path d="M96 192c-12.8 0-25.6 3.2-38.4 6.4-12.8 3.2-22.4 6.4-32 12.8-9.6 6.4-19.2 12.8-25.6 22.4-6.4 9.6-12.8 19.2-16 32-3.2 12.8-6.4 25.6-6.4 38.4s3.2 25.6 6.4 38.4c3.2 12.8 9.6 22.4 16 32 6.4 9.6 16 16 25.6 22.4 9.6 6.4 19.2 9.6 32 12.8 12.8 3.2 25.6 6.4 38.4 6.4s25.6-3.2 38.4-6.4c12.8-3.2 22.4-6.4 32-12.8 9.6-6.4 19.2-12.8 25.6-22.4 6.4-9.6 12.8-19.2 16-32 3.2-12.8 6.4-25.6 6.4-38.4s-3.2-25.6-6.4-38.4c-3.2-12.8-9.6-22.4-16-32-6.4-9.6-16-16-25.6-22.4-9.6-6.4-19.2-9.6-32-12.8-12.8-3.2-25.6-6.4-38.4-6.4z" fill="black"/>
  <path d="M256 144c-6.4 0-12.8 0-19.2 0-6.4 0-12.8 0-19.2 0-6.4 0-12.8 0-19.2 3.2-6.4 0-12.8 3.2-19.2 3.2-6.4 3.2-12.8 3.2-19.2 6.4-6.4 3.2-12.8 6.4-19.2 9.6-6.4 3.2-12.8 6.4-16 12.8-6.4 3.2-9.6 9.6-16 16-3.2 6.4-9.6 12.8-12.8 19.2-3.2 6.4-6.4 12.8-9.6 19.2-3.2 6.4-3.2 12.8-6.4 19.2-0 6.4-3.2 12.8-3.2 19.2-0 6.4-3.2 12.8-3.2 19.2 0 6.4 0 12.8 0 19.2s0 12.8 0 19.2c0 6.4 0 12.8 3.2 19.2 0 6.4 3.2 12.8 3.2 19.2 3.2 6.4 3.2 12.8 6.4 19.2 3.2 6.4 6.4 12.8 9.6 19.2 3.2 6.4 9.6 12.8 12.8 19.2 3.2 6.4 9.6 12.8 16 16 6.4 6.4 9.6 9.6 16 12.8 6.4 3.2 12.8 6.4 19.2 9.6 6.4 3.2 12.8 3.2 19.2 6.4 6.4 0 12.8 3.2 19.2 3.2 6.4 0 12.8 0 19.2 3.2 6.4 0 12.8 0 19.2 0s12.8 0 19.2 0c6.4 0 12.8 0 19.2-3.2 6.4 0 12.8-3.2 19.2-3.2 6.4-3.2 12.8-3.2 19.2-6.4 6.4-3.2 12.8-6.4 19.2-9.6 6.4-3.2 12.8-6.4 16-12.8 6.4-3.2 9.6-9.6 16-16 3.2-6.4 9.6-12.8 12.8-19.2 3.2-6.4 6.4-12.8 9.6-19.2 3.2-6.4 3.2-12.8 6.4-19.2 0-6.4 3.2-12.8 3.2-19.2 0-6.4 3.2-12.8 3.2-19.2 0-6.4 0-12.8 0-19.2s0-12.8 0-19.2c0-6.4 0-12.8-3.2-19.2 0-6.4-3.2-12.8-3.2-19.2-3.2-6.4-3.2-12.8-6.4-19.2-3.2-6.4-6.4-12.8-9.6-19.2-3.2-6.4-9.6-12.8-12.8-19.2-3.2-6.4-9.6-12.8-16-16-6.4-6.4-9.6-9.6-16-12.8-6.4-3.2-12.8-6.4-19.2-9.6-6.4-3.2-12.8-3.2-19.2-6.4-6.4 0-12.8-3.2-19.2-3.2-6.4 0-12.8 0-19.2-3.2-6.4 0-12.8 0-19.2 0z" fill="black"/>
  <circle cx="96" cy="304" r="32" fill="white"/>
  <circle cx="160" cy="240" r="16" fill="white"/>
  <circle cx="224" cy="304" r="24" fill="white"/>
  <circle cx="288" cy="240" r="16" fill="white"/>
  <circle cx="352" cy="304" r="32" fill="white"/>
</svg>
