<?xml version="1.0" encoding="UTF-8"?>
<svg xmlns="http://www.w3.org/2000/svg" viewBox="0 0 512 512" width="512" height="512">
  <path d="M369.9,318.2c44.3,54.3,64.7,98.8,54.4,118.7c-7.9,15.1-56.7,44.6-92.6,55.9c-29.6,9.3-68.4,13.3-100.4,10.2
    c-38.2-3.7-76.9-17.4-110.1-39c-36.8-23.8-61.8-52.7-70.8-82.3c-13.7-45,14.4-102.6,73.3-158c42-39.6,98.4-70.8,159.2-93.9
    c13.3-5.1,27.9,1,35.5,13.5l15.2,25.2c7.6,12.6,3.5,29-9.3,37c-0.1,0.1-0.3,0.1-0.4,0.2c-58.6,31.5-106.1,79.4-104.3,107.4
    c1.1,17.3,34.9,35.2,85.5,35.2c6.3,0,12.8-0.3,19.5-0.8c74.6-6.2,140.5-25.3,185-52.8c5.1-3.2,11.3-3.6,16.7-1.1
    c5.4,2.5,9.2,7.5,10.1,13.4l3.5,23.1C360.5,307.4,363.3,313.8,369.9,318.2z M399.7,118.1c0-13.3-10.7-24-24-24
    c-13.3,0-24,10.7-24,24c0,13.3,10.7,24,24,24C388.9,142.1,399.7,131.3,399.7,118.1z M351.7,166.1c0-13.3-10.7-24-24-24
    c-13.3,0-24,10.7-24,24c0,13.3,10.7,24,24,24C340.9,190.1,351.7,179.3,351.7,166.1z M179.2,171.6c-5.6-9.8-18.1-13.1-27.9-7.4
    l-0.2,0.1c-9.6,5.5-13,17.8-7.6,27.5c5.5,9.7,17.7,13.1,27.5,7.6c0.1,0,0.1-0.1,0.2-0.1C181,193.5,184.8,181.3,179.2,171.6z
     M152.8,144.1c-5.6-9.8-18.1-13.1-27.9-7.4l-0.2,0.1c-9.6,5.5-13,17.8-7.6,27.5c5.5,9.7,17.7,13.1,27.5,7.6c0.1,0,0.1-0.1,0.2-0.1
    C154.6,166,158.4,153.9,152.8,144.1z M202.9,197.6c-5.6-9.8-18.1-13.1-27.9-7.4l-0.2,0.1c-9.6,5.5-13,17.8-7.6,27.5
    c5.5,9.7,17.7,13.1,27.5,7.6c0.1,0,0.1-0.1,0.2-0.1C204.7,219.5,208.5,207.3,202.9,197.6z M161.6,222.8c0-9.6-7.8-17.5-17.5-17.5
    h-0.3c-9.6,0-17.5,7.9-17.5,17.5c0,9.6,7.9,17.5,17.5,17.5h0.3C153.8,240.3,161.6,232.5,161.6,222.8z" fill="black"/>
</svg>
