<?xml version="1.0" encoding="UTF-8"?>
<svg width="24px" height="24px" viewBox="0 0 24 24" version="1.1" xmlns="http://www.w3.org/2000/svg" xmlns:xlink="http://www.w3.org/1999/xlink">
    <title>Game Icon</title>
    <g id="Game-Icon" stroke="none" stroke-width="1" fill="none" fill-rule="evenodd">
        <path d="M12,2 C13.1045695,2 14,2.8954305 14,4 L14,5 L18,5 C19.1045695,5 20,5.8954305 20,7 L20,8 C20,9.1045695 19.1045695,10 18,10 L6,10 C4.8954305,10 4,9.1045695 4,8 L4,7 C4,5.8954305 4.8954305,5 6,5 L10,5 L10,4 C10,2.8954305 10.8954305,2 12,2 Z" id="Graduation-Cap" fill="#000000"></path>
        <circle id="Wheel-Left" fill="#000000" cx="8" cy="15" r="3"></circle>
        <circle id="Wheel-Right" fill="#000000" cx="16" cy="15" r="3"></circle>
        <path d="M8,13 L16,13 C17.1045695,13 18,13.8954305 18,15 L18,15 C18,16.1045695 17.1045695,17 16,17 L8,17 C6.8954305,17 6,16.1045695 6,15 L6,15 C6,13.8954305 6.8954305,13 8,13 Z" id="Connector" fill="#000000"></path>
    </g>
</svg>
