<?xml version="1.0" encoding="UTF-8"?>
<svg xmlns="http://www.w3.org/2000/svg" viewBox="0 0 512 512" width="512" height="512">
  <path d="M390,150c0-20-10-40-30-50s-40-20-70-20H220c-30,0-50,10-70,20s-30,30-30,50c-10,30-10,70,10,110c20,40,60,70,100,80
    c40,10,90,0,130-20c40-20,70-60,80-100C450,220,400,180,390,150z M180,240c0,10-10,20-20,20h-20v20c0,10-10,20-20,20s-20-10-20-20v-20
    H80c-10,0-20-10-20-20s10-20,20-20h20v-20c0-10,10-20,20-20s20,10,20,20v20h20C170,220,180,230,180,240z M360,280c-20,0-30-10-30-30
    s10-30,30-30s30,10,30,30S380,280,360,280z M360,200c-20,0-30-10-30-30s10-30,30-30s30,10,30,30S380,200,360,200z" fill="black"/>
</svg>
