<?xml version="1.0" standalone="no"?>
<!DOCTYPE svg PUBLIC "-//W3C//DTD SVG 20010904//EN"
 "http://www.w3.org/TR/2001/REC-SVG-20010904/DTD/svg10.dtd">
<svg version="1.0" xmlns="http://www.w3.org/2000/svg"
 width="512.000000pt" height="512.000000pt" viewBox="0 0 512.000000 512.000000"
 preserveAspectRatio="xMidYMid meet">

<g transform="translate(0.000000,512.000000) scale(0.100000,-0.100000)"
fill="#000000" stroke="none">
<path d="M1810 4302 c0 -354 -2 -396 -20 -466 -62 -245 -261 -444 -506 -506
-70 -18 -112 -20 -466 -20 l-388 0 2 -1192 3 -1193 26 -67 c74 -190 207 -323
397 -397 l67 -26 855 -2 c671 -2 851 0 836 10 -72 47 -194 146 -258 211 -299
299 -455 703 -434 1123 34 696 528 1261 1221 1399 136 27 425 25 562 -4 56
-12 109 -25 117 -28 14 -6 16 43 16 482 0 553 -2 573 -71 714 -56 114 -169
228 -279 282 -140 69 -122 68 -942 68 l-738 0 0 -388z"/>
<path d="M1025 4095 l-570 -570 350 -3 c388 -3 417 0 526 55 91 46 166 121
212 212 55 109 58 138 55 526 l-3 350 -570 -570z"/>
<path d="M3275 2979 c-522 -55 -971 -445 -1100 -954 -70 -276 -48 -566 63
-824 68 -157 142 -264 274 -398 189 -191 427 -313 697 -358 204 -34 472 -8
659 65 334 129 606 399 738 732 76 193 104 460 69 669 -45 271 -167 508 -358
697 -97 96 -137 128 -235 189 -155 97 -346 161 -540 182 -114 12 -150 12 -267
0z m193 -641 c66 -16 135 -87 151 -154 24 -98 -20 -193 -110 -238 -89 -44
-176 -30 -246 40 -68 68 -81 154 -37 243 28 56 79 98 136 111 47 11 54 11 106
-2z m0 -640 c33 -8 60 -25 93 -58 61 -61 72 -110 68 -285 -4 -116 -7 -135 -29
-175 -38 -67 -96 -103 -174 -108 -71 -5 -120 14 -168 65 -49 52 -58 89 -58
251 0 140 1 151 26 201 28 56 79 98 136 111 47 11 54 11 106 -2z"/>
</g>
</svg>
