<?xml version="1.0" encoding="UTF-8"?>
<svg xmlns="http://www.w3.org/2000/svg" viewBox="0 0 640 512" width="512" height="512">
  <path d="M192 64C86 64 0 150 0 256s86 192 192 192h256c106 0 192-86 192-192S554 64 448 64H192zm-62.6 174.6L178.8 190c9.4-9.4 24.6-9.4 33.9 0l14.5 14.5c9.4 9.4 9.4 24.6 0 33.9L178.8 287c-9.4 9.4-24.6 9.4-33.9 0l-14.5-14.5c-9.3-9.3-9.3-24.5 0-33.9zm193.1 99.5c-15.6 15.6-40.9 15.6-56.6 0-15.6-15.6-15.6-40.9 0-56.6 15.6-15.6 40.9-15.6 56.6 0 15.6 15.6 15.6 41 0 56.6zm79.5-85.7c-15.6 15.6-40.9 15.6-56.6 0-15.6-15.6-15.6-40.9 0-56.6 15.6-15.6 40.9-15.6 56.6 0 15.6 15.6 15.6 41 0 56.6z" fill="black"/>
</svg>
