<?xml version="1.0" standalone="no"?>
<!DOCTYPE svg PUBLIC "-//W3C//DTD SVG 20010904//EN"
 "http://www.w3.org/TR/2001/REC-SVG-20010904/DTD/svg10.dtd">
<svg version="1.0" xmlns="http://www.w3.org/2000/svg"
 width="512.000000pt" height="512.000000pt" viewBox="0 0 512.000000 512.000000"
 preserveAspectRatio="xMidYMid meet">

<g transform="translate(0.000000,512.000000) scale(0.100000,-0.100000)"
fill="#000000" stroke="none">
<path d="M1205 4471 c-90 -22 -172 -90 -215 -176 l-25 -50 0 -1685 0 -1685 23
-45 c35 -72 75 -114 144 -151 l63 -34 1365 0 1365 0 63 34 c70 38 100 69 140
145 l27 51 3 1165 c1 641 0 1176 -3 1190 -7 28 -1182 1212 -1227 1236 -23 12
-155 14 -860 13 -458 -1 -846 -4 -863 -8z m2190 -761 l400 -400 -373 0 -374 0
-29 29 -29 29 0 371 c0 204 1 371 3 371 1 0 182 -180 402 -400z m-887 -954
c15 -8 127 -115 248 -238 167 -168 223 -231 228 -255 16 -71 -56 -143 -127
-127 -22 5 -70 44 -164 137 l-132 130 -3 -531 -3 -530 -24 -26 c-48 -51 -142
-40 -170 20 -8 17 -11 183 -11 544 0 286 -3 520 -8 520 -4 0 -63 -56 -132
-125 -68 -68 -136 -129 -151 -136 -40 -16 -95 4 -120 45 -23 37 -24 67 -5 104
17 31 453 467 476 475 28 10 71 7 98 -7z"/>
</g>
</svg>
