<?xml version="1.0" encoding="UTF-8"?>
<svg width="32px" height="32px" viewBox="0 0 32 32" version="1.1" xmlns="http://www.w3.org/2000/svg">
    <g stroke="none" stroke-width="1" fill="none" fill-rule="evenodd">
        <path d="M16,1 L31,9 L31,11 L29,11 L29,23 C29.5522847,23 30,23.4477153 30,24 C30,24.5522847 29.5522847,25 29,25 L27,25 C26.4477153,25 26,24.5522847 26,24 C26,23.4477153 26.4477153,23 27,23 L27,10.175 L16,16 L1,9 L16,1 Z M9,13.764 L9,22 C9,24.209139 12.1340068,26 16,26 C19.8659932,26 23,24.209139 23,22 L23,13.764 L16.74,17.566 C16.2746,17.8213333 15.7254,17.8213333 15.26,17.566 L9,13.764 Z M16,3.176 L5.5,9.75 L16,16.324 L26.5,9.75 L16,3.176 Z" fill="#000000" fill-rule="nonzero"/>
    </g>
</svg>
