<?xml version="1.0" encoding="UTF-8"?>
<svg width="32px" height="32px" viewBox="0 0 32 32" version="1.1" xmlns="http://www.w3.org/2000/svg">
    <g stroke="none" stroke-width="1" fill="none" fill-rule="evenodd">
        <path d="M9,8 L23,8 C27.418278,8 31,11.581722 31,16 L31,24 C31,28.418278 27.418278,32 23,32 L9,32 C4.581722,32 1,28.418278 1,24 L1,16 C1,11.581722 4.581722,8 9,8 Z M9,11 C6.23857625,11 4,13.2385763 4,16 L4,24 C4,26.7614237 6.23857625,29 9,29 L23,29 C25.7614237,29 28,26.7614237 28,24 L28,16 C28,13.2385763 25.7614237,11 23,11 L9,11 Z" fill="#000000" fill-rule="nonzero"/>
        <path d="M8,17 C8.55228475,17 9,17.4477153 9,18 L9,20 L11,20 C11.5522847,20 12,20.4477153 12,21 C12,21.5522847 11.5522847,22 11,22 L9,22 L9,24 C9,24.5522847 8.55228475,25 8,25 C7.44771525,25 7,24.5522847 7,24 L7,22 L5,22 C4.44771525,22 4,21.5522847 4,21 C4,20.4477153 4.44771525,20 5,20 L7,20 L7,18 C7,17.4477153 7.44771525,17 8,17 Z" fill="#000000" fill-rule="nonzero"/>
        <path d="M19,17 C20.1045695,17 21,17.8954305 21,19 C21,20.1045695 20.1045695,21 19,21 C17.8954305,21 17,20.1045695 17,19 C17,17.8954305 17.8954305,17 19,17 Z" fill="#000000" fill-rule="nonzero"/>
        <path d="M23,21 C24.1045695,21 25,21.8954305 25,23 C25,24.1045695 24.1045695,25 23,25 C21.8954305,25 21,24.1045695 21,23 C21,21.8954305 21.8954305,21 23,21 Z" fill="#000000" fill-rule="nonzero"/>
        <path d="M16,0 C16.5522847,0 17,0.44771525 17,1 L17,7 C17,7.55228475 16.5522847,8 16,8 C15.4477153,8 15,7.55228475 15,7 L15,1 C15,0.44771525 15.4477153,0 16,0 Z" fill="#000000" fill-rule="nonzero"/>
        <path d="M21,3 C21.5522847,3 22,3.44771525 22,4 L22,7 C22,7.55228475 21.5522847,8 21,8 C20.4477153,8 20,7.55228475 20,7 L20,4 C20,3.44771525 20.4477153,3 21,3 Z" fill="#000000" fill-rule="nonzero"/>
        <path d="M11,3 C11.5522847,3 12,3.44771525 12,4 L12,7 C12,7.55228475 11.5522847,8 11,8 C10.4477153,8 10,7.55228475 10,7 L10,4 C10,3.44771525 10.4477153,3 11,3 Z" fill="#000000" fill-rule="nonzero"/>
    </g>
</svg>
