<?xml version="1.0" encoding="UTF-8"?>
<svg width="32px" height="32px" viewBox="0 0 32 32" version="1.1" xmlns="http://www.w3.org/2000/svg">
    <g stroke="none" stroke-width="1" fill="none" fill-rule="evenodd">
        <path d="M8,1 C6.34314575,1 5,2.34314575 5,4 L5,28 C5,29.6568542 6.34314575,31 8,31 L24,31 C25.6568542,31 27,29.6568542 27,28 L27,9.41421356 L18.5857864,1 L8,1 Z M8,4 L17,4 L17,10 C17,10.5522847 17.4477153,11 18,11 L24,11 L24,28 L8,28 L8,4 Z M20,4.41421356 L24.5857864,9 L20,9 L20,4.41421356 Z" fill="#000000" fill-rule="nonzero"/>
        <path d="M18,18 C19.6568542,18 21,19.3431458 21,21 C21,22.6568542 19.6568542,24 18,24 C16.3431458,24 15,22.6568542 15,21 C15,19.3431458 16.3431458,18 18,18 Z M18,15 C18.5522847,15 19,15.4477153 19,16 L19,17 C19,17.5522847 18.5522847,18 18,18 C17.4477153,18 17,17.5522847 17,17 L17,16 C17,15.4477153 17.4477153,15 18,15 Z" fill="#000000" fill-rule="nonzero"/>
    </g>
</svg>
