<?xml version="1.0" encoding="UTF-8"?>
<svg width="32px" height="32px" viewBox="0 0 32 32" version="1.1" xmlns="http://www.w3.org/2000/svg">
    <g stroke="none" stroke-width="1" fill="none" fill-rule="evenodd">
        <path d="M16,2 C24.2842712,2 31,8.71572875 31,17 C31,25.2842712 24.2842712,32 16,32 C7.71572875,32 1,25.2842712 1,17 C1,8.71572875 7.71572875,2 16,2 Z M16,5 C9.372583,5 4,10.372583 4,17 C4,23.627417 9.372583,29 16,29 C22.627417,29 28,23.627417 28,17 C28,10.372583 22.627417,5 16,5 Z M16,5 C16,5 16,17 16,17 C16,17 28,17 28,17 C28,10.372583 22.627417,5 16,5 Z" fill="#000000" fill-rule="nonzero"/>
    </g>
</svg>
