<?xml version="1.0" encoding="UTF-8"?>
<svg width="32px" height="32px" viewBox="0 0 32 32" version="1.1" xmlns="http://www.w3.org/2000/svg">
    <g stroke="none" stroke-width="1" fill="none" fill-rule="evenodd">
        <path d="M8,1 C6.34314575,1 5,2.34314575 5,4 L5,28 C5,29.6568542 6.34314575,31 8,31 L24,31 C25.6568542,31 27,29.6568542 27,28 L27,9.41421356 L18.5857864,1 L8,1 Z M8,4 L17,4 L17,10 C17,10.5522847 17.4477153,11 18,11 L24,11 L24,28 L8,28 L8,4 Z M20,4.41421356 L24.5857864,9 L20,9 L20,4.41421356 Z" fill="#000000" fill-rule="nonzero"/>
        <path d="M16,13 C16.5522847,13 17,13.4477153 17,14 L17,21 L19.2928932,18.7071068 C19.6834175,18.3165825 20.3165825,18.3165825 20.7071068,18.7071068 C21.0976311,19.0976311 21.0976311,19.7307961 20.7071068,20.1213203 L16.7071068,24.1213203 C16.3165825,24.5118446 15.6834175,24.5118446 15.2928932,24.1213203 L11.2928932,20.1213203 C10.9023689,19.7307961 10.9023689,19.0976311 11.2928932,18.7071068 C11.6834175,18.3165825 12.3165825,18.3165825 12.7071068,18.7071068 L15,21 L15,14 C15,13.4477153 15.4477153,13 16,13 Z" fill="#000000" fill-rule="nonzero"/>
    </g>
</svg>
